PathFileType	4	(X/Y/Z)	./resultDataOpenSim/trcMotMarkerGrf/sub09/qtm-12-02.trc
DataRate	CameraRate	NumFrames	NumMarkers	Units	OrigDataRate	OrigDataStartFrame	OrigNumFrames
250.000000	250.000000	7	24	m	250.000000	181	482
Frame#	Time	L.Toe.Tip			R.Toe.Tip			L.Ankle.Lat			R.Ankle.Lat			L.Ankle.Med			R.Ankle.Med			L.Heel			R.Heel			L.Knee.Lat			R.Knee.Lat			L.Knee.Med			R.Knee.Med			L.Thigh.Upper			R.Thigh.Upper			L.ASIS			R.ASIS			V.Sacral			L.Acromium			R.Acromium			C7			L.Elbow			R.Elbow			L.Wrist.Lat			R.Wrist.Lat
		X1	Y1	Z1	X2	Y2	Z2	X3	Y3	Z3	X4	Y4	Z4	X5	Y5	Z5	X6	Y6	Z6	X7	Y7	Z7	X8	Y8	Z8	X9	Y9	Z9	X10	Y10	Z10	X11	Y11	Z11	X12	Y12	Z12	X13	Y13	Z13	X14	Y14	Z14	X15	Y15	Z15	X16	Y16	Z16	X17	Y17	Z17	X18	Y18	Z18	X19	Y19	Z19	X20	Y20	Z20	X21	Y21	Z21	X22	Y22	Z22	X23	Y23	Z23	X24	Y24	Z24

181	0.72	0.15120937	0.015133623	-0.0035399174	-0.58676822	0.059875938	0.078826193	0.0042825814	0.045883876	-0.048233492	-0.64172951	0.20150793	0.12178891	0.019964709	0.068797042	0.047970878	-0.58542664	0.20302779	0.039401117	-0.069753401	0.012215518	-0.0047424767	-0.68400706	0.24112555	0.061620838	0.051388765	0.4523246	-0.11353126	-0.24731791	0.42723979	0.19025698	0.05156316	0.45940942	0.010834715	-0.23885768	0.40045777	0.064398656	-0.14696921	0.82341523	-0.16678044	-0.21119435	0.82145008	0.20357967	-0.086527204	0.91335108	-0.097171474	-0.10034133	0.9049102	0.14395582	-0.26272134	0.95816441	0.0066772934	-0.10648602	1.3572826	-0.1517503	-0.14454079	1.3791216	0.17775844	-0.1918952	1.4161643	0.0084657259	-0.27297827	1.0326553	-0.21100538	-0.27834633	1.0380499	0.26224967	-0.16744791	0.78942495	-0.23440412	-0.10409376	0.82918501	0.30570134
182	0.724	0.15127758	0.015074088	-0.0035294288	-0.5814358	0.062263661	0.080305657	0.0045574132	0.045729386	-0.048196167	-0.63060505	0.20687221	0.1228035	0.020297173	0.068700134	0.048010494	-0.57410448	0.20665118	0.040412406	-0.069698606	0.012311003	-0.0047124167	-0.6717515	0.24807994	0.06302835	0.055067505	0.45166598	-0.11404349	-0.23410073	0.42651032	0.19090187	0.055316983	0.45846107	0.010632025	-0.22513304	0.39956068	0.064923879	-0.14052197	0.8239786	-0.16721207	-0.20428163	0.82122999	0.20301698	-0.08004482	0.91406606	-0.097724335	-0.094041413	0.9053211	0.14343279	-0.2561852	0.95875508	0.005686505	-0.099002228	1.357818	-0.15179637	-0.1376403	1.37953	0.17767831	-0.18477597	1.4168436	0.0082168296	-0.26519033	1.0330779	-0.21129567	-0.27294329	1.0390568	0.26197359	-0.15940024	0.78984266	-0.23431311	-0.10003916	0.82887532	0.30613413
183	0.728	0.15133034	0.015026125	-0.0035407709	-0.57538698	0.064795264	0.081971606	0.0048214479	0.045591673	-0.048198271	-0.61910812	0.21195145	0.12373952	0.020583578	0.068615055	0.048026252	-0.56246454	0.2102242	0.041392986	-0.069659594	0.012395077	-0.0047089282	-0.65918589	0.2549065	0.064509648	0.058609835	0.45105115	-0.11444264	-0.22075471	0.42592255	0.19136407	0.058554812	0.45770562	0.010345245	-0.21150683	0.39905595	0.065180276	-0.13414773	0.82464314	-0.16764099	-0.19748238	0.82114498	0.20246467	-0.073619367	0.91480742	-0.098232831	-0.087829562	0.90582785	0.14297593	-0.24959554	0.95963043	0.004917542	-0.091534235	1.3584037	-0.15183086	-0.13079885	1.3800002	0.17762052	-0.17766674	1.4176146	0.0079647747	-0.25746927	1.0335412	-0.2116083	-0.26727911	1.0400243	0.26164497	-0.15129039	0.79031848	-0.23417349	-0.095929747	0.8286003	0.30653774
184	0.732	0.1513541	0.014986014	-0.0035518579	-0.5684759	0.067568674	0.083820622	0.005021928	0.045477285	-0.048218638	-0.60735159	0.21677485	0.12456769	0.020808032	0.068543019	0.048027531	-0.55052532	0.21375429	0.042358097	-0.069653468	0.012462455	-0.0047178209	-0.64634232	0.26157152	0.066052722	0.061993779	0.45047304	-0.1147039	-0.20735727	0.42549242	0.19159838	0.061408106	0.4571487	0.010036605	-0.19797547	0.39891872	0.065188297	-0.12783784	0.82543112	-0.16808287	-0.19075907	0.8212132	0.20191701	-0.067260271	0.91557982	-0.098702312	-0.081700512	0.90643983	0.14257323	-0.24324985	0.96064773	0.004310565	-0.08408967	1.3590461	-0.15185019	-0.124042	1.3805496	0.17758175	-0.17058925	1.4184697	0.007718447	-0.24979171	1.0340549	-0.21197512	-0.2613685	1.04098	0.26125651	-0.14312844	0.79086321	-0.23399317	-0.091761052	0.82837343	0.30690399
185	0.736	0.15134393	0.014951734	-0.0035440495	-0.5605009	0.070685436	0.085790466	0.0051390283	0.045389827	-0.048242232	-0.59537495	0.2214237	0.12527592	0.020964221	0.068485177	0.048026874	-0.53833672	0.21730687	0.043303294	-0.069690901	0.012507148	-0.004738414	-0.63329564	0.26792997	0.067581128	0.065219644	0.44993126	-0.11484294	-0.1939915	0.4252111	0.19160215	0.064025299	0.45676396	0.009777832	-0.18454712	0.39912526	0.065058498	-0.12158345	0.82634826	-0.16854533	-0.18408383	0.82143389	0.20138067	-0.060977866	0.91639136	-0.099129781	-0.075644241	0.90716028	0.14221211	-0.23719467	0.96177027	0.0039603743	-0.076671788	1.3597501	-0.15184418	-0.1173885	1.3811855	0.17755374	-0.16355983	1.4194028	0.0074822271	-0.24209443	1.0346231	-0.21246975	-0.25546089	1.0419829	0.26088272	-0.13493137	0.79148758	-0.23377632	-0.087582217	0.82819729	0.30722385
186	0.74	0.1513027	0.014923659	-0.0035134432	-0.55124248	0.0742038	0.087788763	0.0051855627	0.045325019	-0.048262544	-0.58317588	0.22599461	0.1258738	0.021049208	0.068438161	0.048033204	-0.52595705	0.22101588	0.044224772	-0.069768402	0.012528345	-0.0047741194	-0.62013961	0.27378865	0.068871957	0.068318743	0.44941851	-0.11488234	-0.18066479	0.42506177	0.19146639	0.066469833	0.45647884	0.0095853529	-0.17130921	0.39965634	0.064943233	-0.11538429	0.82738648	-0.16902165	-0.17744512	0.82179796	0.20086303	-0.054778011	0.9172492	-0.099511554	-0.069653688	0.90798407	0.14188314	-0.23125134	0.96302073	0.0038708722	-0.06927876	1.3605184	-0.15180419	-0.11083703	1.3819055	0.17753281	-0.15658207	1.4204023	0.0072518334	-0.23433163	1.0352482	-0.21314194	-0.24972835	1.0430617	0.26057737	-0.1267209	0.79219401	-0.23352906	-0.08348958	0.82806366	0.30748657
187	0.744	0.15123826	0.014902992	-0.003471667	-0.54060434	0.078083706	0.089756322	0.005193793	0.045271321	-0.048282031	-0.57073338	0.2305666	0.12638297	0.021064124	0.068391015	0.048049999	-0.51344074	0.22503169	0.04505757	-0.069869023	0.012533925	-0.0048194092	-0.6069956	0.27905404	0.069652766	0.071326259	0.44893269	-0.11485372	-0.16733748	0.42512137	0.19132954	0.068801644	0.45621695	0.0094565966	-0.15838883	0.40049408	0.064945175	-0.10924194	0.82852752	-0.16949746	-0.17084221	0.82230107	0.20035966	-0.048664828	0.91815735	-0.09984922	-0.063720247	0.90890466	0.14158019	-0.22528413	0.96438563	0.0038883059	-0.061908167	1.3613532	-0.15172699	-0.10437429	1.3827052	0.17752304	-0.14965207	1.4214581	0.0070252542	-0.22651489	1.0359364	-0.21396424	-0.24408005	1.0442005	0.26030621	-0.11852024	0.79297896	-0.23325804	-0.079593277	0.82795978	0.30768296
